<svg id="done_icon" data-name="done icon" xmlns="http://www.w3.org/2000/svg" width="100" height="100" viewBox="0 0 100 100">
  <g id="Group_925" data-name="Group 925" transform="translate(33.334 35.417)">
    <g id="Group_924" data-name="Group 924">
      <path id="Path_473" data-name="Path 473" d="M166.364,137.222a4.166,4.166,0,0,0-5.892,0l-17.887,17.885-7.471-7.469a4.166,4.166,0,1,0-5.892,5.892l10.417,10.417a4.165,4.165,0,0,0,5.892,0l20.833-20.833A4.166,4.166,0,0,0,166.364,137.222Z" transform="translate(-128.002 -136.002)" fill="#fff"/>
    </g>
  </g>
  <g id="Group_927" data-name="Group 927" transform="translate(0 0)">
    <g id="Group_926" data-name="Group 926">
      <path id="Path_474" data-name="Path 474" d="M95.833,45.833A4.168,4.168,0,0,0,91.667,50a41.663,41.663,0,1,1-12.1-29.358,4.166,4.166,0,1,0,5.912-5.871A50,50,0,1,0,100,50,4.168,4.168,0,0,0,95.833,45.833Z" transform="translate(0 0)" fill="#fff"/>
    </g>
  </g>
</svg>
